<svg viewBox="50 50 100 100" fill="none"  xmlns="http://www.w3.org/2000/svg">
<path d="M98.2494 97.9242C105.901 78.9827 133.452 81.3931 137.698 101.376C138.365 104.512 139.738 107.457 141.712 109.984C154.29 126.081 138.427 148.735 118.999 142.421C115.949 141.43 112.713 141.147 109.537 141.594C89.3077 144.438 77.6196 119.373 92.8016 105.705C95.185 103.559 97.0483 100.898 98.2494 97.9242Z" stroke="#FFD93D" stroke-width="0.6"/>
<path d="M101.753 95.0371C112.577 77.712 139.291 84.8701 140.003 105.286C140.115 108.491 140.955 111.629 142.461 114.461C152.053 132.497 132.497 152.053 114.46 142.462C111.629 140.956 108.491 140.115 105.286 140.003C84.8696 139.292 77.7116 112.578 95.0364 101.753C97.7562 100.054 100.053 97.7569 101.753 95.0371Z" stroke="#FFD93D" stroke-width="0.6"/>
<path d="M105.704 92.8016C119.372 77.6194 144.438 89.3076 141.593 109.537C141.147 112.713 141.43 115.949 142.421 118.999C148.735 138.427 126.08 154.29 109.983 141.712C107.456 139.738 104.512 138.365 101.375 137.698C81.3925 133.452 78.9821 105.901 97.9233 98.2495C100.897 97.0483 103.558 95.185 105.704 92.8016Z" stroke="#FFD93D" stroke-width="0.6"/>
<path d="M109.983 91.2864C126.08 78.7084 148.735 94.5716 142.421 114C141.43 117.05 141.146 120.286 141.593 123.462C144.437 143.691 119.372 155.379 105.704 140.197C103.558 137.814 100.897 135.95 97.9234 134.749C78.982 127.098 81.3924 99.5467 101.375 95.3005C104.512 94.634 107.456 93.2611 109.983 91.2864Z" stroke="#FFD93D" stroke-width="0.6"/>
<path d="M114.46 90.5387C132.497 80.9469 152.053 100.503 142.461 118.54C140.956 121.371 140.115 124.509 140.003 127.714C139.291 148.13 112.577 155.288 101.753 137.963C100.054 135.243 97.7566 132.946 95.0368 131.247C77.7119 120.423 84.8698 93.7087 105.286 92.997C108.491 92.8853 111.629 92.0445 114.46 90.5387Z" stroke="#FFD93D" stroke-width="0.6"/>
<path d="M119 90.578C138.428 84.264 154.291 106.919 141.713 123.016C139.738 125.543 138.365 128.487 137.699 131.624C133.453 151.606 105.902 154.017 98.2502 135.075C97.049 132.102 95.1857 129.441 92.8023 127.295C77.6202 113.627 89.3082 88.5616 109.538 91.4058C112.713 91.8524 115.95 91.5692 119 90.578Z" stroke="#FFD93D" stroke-width="0.6"/>
<path d="M123.463 91.4062C143.692 88.5618 155.38 113.627 140.198 127.296C137.815 129.441 135.951 132.102 134.75 135.076C127.099 154.017 99.5476 151.607 95.3016 131.625C94.635 128.488 93.2621 125.543 91.2875 123.016C78.7095 106.919 94.5725 84.2646 114.001 90.5785C117.051 91.5697 120.287 91.8528 123.463 91.4062Z" stroke="#FFD93D" stroke-width="0.6"/>
<path d="M127.961 129.242C128.649 135.907 119.864 138.932 116.303 133.256C114.525 130.423 110.936 129.325 107.877 130.679C101.751 133.393 96.1597 125.974 100.457 120.833C102.602 118.267 102.536 114.514 100.303 112.024C95.8289 107.036 101.158 99.4257 107.375 101.924C110.479 103.171 114.028 101.949 115.706 99.0552C119.067 93.2588 127.952 95.9751 127.497 102.66C127.27 105.997 129.529 108.995 132.8 109.697C139.351 111.102 139.513 120.391 133.015 122.024C129.77 122.839 127.618 125.914 127.961 129.242Z" stroke="#FFD93D" stroke-width="0.5"/>
<path d="M125.089 131.319C124.609 138.002 115.433 139.455 112.911 133.248C111.652 130.149 108.308 128.444 105.061 129.247C98.5564 130.856 94.3382 122.578 99.4627 118.262C102.021 116.107 102.608 112.399 100.841 109.559C97.301 103.87 103.87 97.301 109.559 100.841C112.399 102.608 116.107 102.021 118.262 99.4624C122.579 94.3378 130.856 98.5556 129.248 105.06C128.445 108.307 130.149 111.652 133.249 112.911C139.456 115.432 138.002 124.608 131.319 125.088C127.983 125.328 125.329 127.982 125.089 131.319Z" stroke="#FFD93D" stroke-width="0.5"/>
<path d="M122.815 132.225C121.182 138.723 111.892 138.561 110.487 132.01C109.785 128.74 106.788 126.48 103.45 126.707C96.7654 127.162 94.0487 118.278 99.8449 114.917C102.739 113.239 103.961 109.689 102.713 106.586C100.215 100.368 107.825 95.0397 112.813 99.5136C115.303 101.747 119.056 101.813 121.623 99.6674C126.764 95.3702 134.184 100.961 131.47 107.087C130.115 110.146 131.213 113.736 134.047 115.514C139.722 119.075 136.697 127.859 130.032 127.171C126.705 126.828 123.63 128.981 122.815 132.225Z" stroke="#FFD93D" stroke-width="0.5"/>
<path d="M119.503 133.363C116.766 139.479 107.646 137.706 107.4 131.011C107.277 127.668 104.717 124.922 101.391 124.566C94.7287 123.853 93.5959 114.632 99.8877 112.329C103.029 111.179 104.849 107.896 104.159 104.622C102.779 98.0659 111.198 94.1396 115.333 99.4117C117.398 102.044 121.083 102.76 123.983 101.093C129.792 97.7538 136.128 104.548 132.392 110.11C130.527 112.887 130.985 116.613 133.466 118.856C138.437 123.349 133.932 131.474 127.488 129.639C124.271 128.723 120.869 130.31 119.503 133.363Z" stroke="#FFD93D" stroke-width="0.5"/>
<path d="M116.958 133.268C113.201 138.816 104.527 135.486 105.447 128.85C105.906 125.536 103.862 122.388 100.649 121.46C94.2115 119.601 94.6971 110.323 101.293 109.147C104.587 108.56 106.949 105.643 106.838 102.3C106.617 95.603 115.591 93.1984 118.747 99.1085C120.323 102.059 123.828 103.404 126.974 102.266C133.274 99.9864 138.334 107.778 133.689 112.607C131.37 115.017 131.174 118.766 133.228 121.406C137.343 126.694 131.496 133.913 125.469 130.987C122.459 129.526 118.834 130.499 116.958 133.268Z" stroke="#FFD93D" stroke-width="0.5"/>
<path d="M113.554 133.373C108.891 138.184 100.927 133.399 102.985 127.023C104.013 123.84 102.547 120.384 99.5431 118.912C93.5265 115.963 95.6157 106.911 102.316 106.899C105.661 106.892 108.494 104.43 108.966 101.118C109.911 94.4846 119.166 93.6748 121.248 100.043C122.288 103.223 125.506 105.156 128.801 104.582C135.402 103.43 139.032 111.982 133.618 115.931C130.916 117.902 130.072 121.56 131.637 124.517C134.771 130.438 127.76 136.533 122.332 132.605C119.622 130.644 115.882 130.971 113.554 133.373Z" stroke="#FFD93D" stroke-width="0.5"/>
<path d="M111.098 132.245C105.67 136.173 98.6582 130.078 101.792 124.156C103.357 121.199 102.513 117.542 99.811 115.57C94.3978 111.622 98.0273 103.07 104.628 104.221C107.923 104.796 111.141 102.862 112.18 99.6829C114.263 93.3144 123.518 94.1241 124.463 100.757C124.935 104.069 127.768 106.532 131.113 106.538C137.813 106.551 139.903 115.603 133.886 118.552C130.883 120.024 129.417 123.48 130.444 126.663C132.502 133.039 124.539 137.823 119.876 133.012C117.547 130.61 113.808 130.284 111.098 132.245Z" stroke="#FFD93D" stroke-width="0.5"/>
</svg>
