<svg width="332" height="328" viewBox="0 0 332 328" fill="none" xmlns="http://www.w3.org/2000/svg">
<path fill="#ffffff" fill-rule="evenodd" clip-rule="evenodd" d="M64.0231 163.787C115.596 173.644 156.172 214.22 166.029 265.793C175.886 214.22 216.463 173.644 268.035 163.787C216.463 153.93 175.886 113.353 166.029 61.7805C156.172 113.353 115.596 153.93 64.0231 163.787ZM44.2164 161.575C109.278 159.24 161.482 107.036 163.817 41.9739H168.241C170.576 107.036 222.78 159.24 287.842 161.575V165.999C222.78 168.334 170.576 220.537 168.241 285.599H163.817C161.482 220.537 109.278 168.334 44.2164 165.999V161.575Z"/>
<path fill="#ffffff" fill-rule="evenodd" clip-rule="evenodd" d="M167.556 41.9739L166 0L164.444 41.9739H163.759L162.167 86.3357C156.177 124.34 126.088 154.261 88.0033 160.001L44.1586 161.575V162.173L0 163.787L44.1586 165.401V165.999L88.0026 167.572C126.087 173.312 156.177 203.233 162.167 241.238L163.759 285.599H164.444L166 327.573L167.556 285.599H168.183L169.758 241.72C175.57 203.48 205.761 173.327 244.015 167.569L287.784 165.999V165.403L332 163.787L287.784 162.171V161.575L244.015 160.004C205.761 154.246 175.57 124.093 169.758 85.8532L168.183 41.9739H167.556ZM167.556 41.9739H164.444L163.193 75.7422C163.06 79.3325 162.714 82.8677 162.167 86.3357L159.615 157.431L88.0033 160.001C84.7099 160.498 81.3566 160.813 77.9539 160.937L44.1586 162.173V165.401L77.954 166.636C81.3564 166.76 84.7094 167.076 88.0026 167.572L159.615 170.142L162.167 241.238C162.714 244.706 163.06 248.241 163.193 251.831L164.444 285.599H167.556L168.807 251.831C168.934 248.407 169.255 245.033 169.758 241.72L172.327 170.142L244.015 167.569C247.303 167.075 250.65 166.76 254.046 166.636L287.784 165.403V162.171L254.046 160.937C250.65 160.813 247.302 160.499 244.015 160.004L172.327 157.431L169.758 85.8532C169.255 82.5401 168.934 79.1662 168.807 75.7422L167.556 41.9739ZM163.891 161.707L165.971 103.76L168.051 161.707L225.998 163.787L168.051 165.866L165.971 223.813L163.891 165.866L105.944 163.787L163.891 161.707Z" />
</svg>
